# xmcd
#
# Track frame offsets: 
#        150
#        18877
#        34589
#        52457
#        70433
#        85141
#        101176
#        123408
#        145925
#        166609
#        188218
#        209368
#        228643
#
# Disc length: 3169 seconds
#
# Revision: 0
# Processed by: cddbd v1.5.2PL0 Copyright (c) Steve Scherf et al.
# Submitted via: ExactAudioCopy v1.0b3
#
DISCID=b90c5f0d
DTITLE=Fear Of Grace - Twelve Octobers
DYEAR=2012
DGENRE=Darkwave
TTITLE0=Sad
TTITLE1=Queer From The Sky
TTITLE2=Head Over Heels
TTITLE3=Real Axe
TTITLE4=Punish
TTITLE5=Kit Of Desires
TTITLE6=Shroud
TTITLE7=Raised Dust
TTITLE8=Spades And Clubs
TTITLE9=Hello, Goodbye
TTITLE10=The Holiday
TTITLE11=Beside
TTITLE12=Hidden Track
EXTD=
EXTT0=
EXTT1=
EXTT2=
EXTT3=
EXTT4=
EXTT5=
EXTT6=
EXTT7=
EXTT8=
EXTT9=
EXTT10=
EXTT11=
EXTT12=
PLAYORDER=
